<?xml version="1.0" encoding="UTF-8"?>
<svg version="1.1" xmlns="http://www.w3.org/2000/svg" width="600" height="600">
<path d="M0 0 C198 0 396 0 600 0 C600 198 600 396 600 600 C402 600 204 600 0 600 C0 402 0 204 0 0 Z " fill="#020202" transform="translate(0,0)"/>
<path d="M0 0 C1.16018646 -0.00160126 1.16018646 -0.00160126 2.34381104 -0.00323486 C20.84007466 0.03354083 37.91549491 2.5956171 54.375 11.4375 C55.87160156 12.12972656 55.87160156 12.12972656 57.3984375 12.8359375 C69.23977475 18.34565997 78.93402317 26.52457781 88.375 35.4375 C89.07367188 36.08332031 89.77234375 36.72914063 90.4921875 37.39453125 C97.62038378 44.20376155 106.48024867 53.20794362 106.8125 63.625 C106.65624007 69.86497986 104.04703263 75.51261517 99.84765625 80.109375 C94.38043408 84.83928731 90.18879575 85.86477114 83.11328125 85.66796875 C75.17663372 84.99997702 71.49522289 80.78787587 66.546875 75.05078125 C65.25405928 73.49521701 63.96955522 71.93258863 62.703125 70.35546875 C50.86804427 55.9717444 32.89245507 45.67325142 14.375 43.4375 C-7.77220433 41.73815944 -28.87855636 44.74474949 -46.41796875 59.453125 C-47.14628906 60.10796875 -47.87460938 60.7628125 -48.625 61.4375 C-49.50800781 62.21609375 -50.39101562 62.9946875 -51.30078125 63.796875 C-64.15380987 75.81436788 -73.72603195 92.5183502 -74.80200195 110.375 C-75.49831736 129.8379734 -75.49831736 129.8379734 -70.625 148.4375 C-70.36187012 149.06624023 -70.09874023 149.69498047 -69.82763672 150.34277344 C-61.62723226 169.58379036 -47.19029479 185.28142608 -27.60546875 193.26025391 C-8.86503331 200.22521019 13.51754615 201.52043227 32.3125 193.5625 C33.67835505 192.87697579 35.03296997 192.16856694 36.375 191.4375 C37.12007812 191.0559375 37.86515625 190.674375 38.6328125 190.28125 C43.9475874 187.47072497 48.666172 184.16029136 53.375 180.4375 C54.344375 179.73625 55.31375 179.035 56.3125 178.3125 C60.28056511 174.98061924 63.09422912 170.60522849 66.13671875 166.453125 C74.39262696 155.32998166 74.39262696 155.32998166 80.375 152.4375 C86.67435118 151.53436721 93.31910576 151.23864081 98.9375 154.5625 C102.84163974 157.50317178 106.17540028 161.03830057 108.375 165.4375 C109.66484339 176.07870798 107.78754378 182.948411 101.375 191.4375 C97.55713544 196.27123691 93.51675879 200.88080538 89.375 205.4375 C88.78074219 206.11554688 88.18648437 206.79359375 87.57421875 207.4921875 C68.0838974 228.54374906 37.34104973 240.53676023 9.16796875 241.85546875 C-6.08513433 242.27433383 -20.09527435 241.17668137 -34.625 236.4375 C-35.85089844 236.04175781 -37.07679688 235.64601563 -38.33984375 235.23828125 C-51.266055 230.61189649 -65.75938111 223.30311889 -75.625 213.4375 C-75.955 240.4975 -76.285 267.5575 -76.625 295.4375 C-90.485 295.4375 -104.345 295.4375 -118.625 295.4375 C-118.67023098 271.83632276 -118.70703806 248.23518087 -118.72862434 224.63397121 C-118.73891577 213.67434062 -118.75293512 202.71473897 -118.77587891 191.75512695 C-118.7958783 182.1973705 -118.80873193 172.63963502 -118.81317699 163.08185822 C-118.81577331 158.02598063 -118.82183091 152.97016301 -118.83646011 147.91430473 C-118.85014775 143.14470753 -118.8542003 138.37519436 -118.85121536 133.60557938 C-118.85176057 131.86547576 -118.85567084 130.125369 -118.86341095 128.38528252 C-119.01444924 92.64282326 -108.59437391 63.04974515 -84.625 36.4375 C-83.71814453 35.42236328 -83.71814453 35.42236328 -82.79296875 34.38671875 C-67.49797974 18.1985917 -46.78218085 8.27031322 -25.625 2.4375 C-24.9944873 2.24841064 -24.36397461 2.05932129 -23.71435547 1.86450195 C-15.96566202 -0.20002562 -7.96087145 -0.00232348 0 0 Z " fill="#DDDBDC" transform="translate(298.625,152.5625)"/>
<path d="M0 0 C6.29411742 2.56937944 10.50723602 7.02602844 14.078125 12.71875 C15.33707367 15.8341145 15.30168723 18.52304158 15.3125 21.875 C15.32925781 23.06867188 15.34601563 24.26234375 15.36328125 25.4921875 C14.76331339 31.28542557 12.02853705 35.86258357 8 40 C1.46344673 43.94310299 -4.36458016 45.68948607 -12 45 C-18.98469591 42.83233575 -24.69610649 38.71165591 -28.4375 32.375 C-31.01319621 26.52928947 -31.36818846 19.71365438 -29.15234375 13.69921875 C-22.32397754 1.77851164 -13.08655029 -1.40687052 0 0 Z " fill="#6197F3" transform="translate(404,250)"/>
</svg>
